HIERARCHY
ROOT Hips
{
  OFFSET 52.2773 100.719 18.2854
  CHANNELS 6 Xposition Yposition Zposition Zrotation Xrotation Yrotation
  JOINT spine
  {
    OFFSET 0 8.81705 0.507024
    CHANNELS 3 Zrotation Xrotation Yrotation
    JOINT spine1
    {
      OFFSET 0 10.7766 0
      CHANNELS 3 Zrotation Xrotation Yrotation
      JOINT spine2
      {
        OFFSET 0 10.3259 0
        CHANNELS 3 Zrotation Xrotation Yrotation
        JOINT Neck
        {
          OFFSET 0 26.511 1.26395
          CHANNELS 3 Zrotation Xrotation Yrotation
          JOINT Head
          {
            OFFSET 0 8.00966 0
            CHANNELS 3 Zrotation Xrotation Yrotation
            End Site
            {
              OFFSET 0 19.3879 -6.39386
            }
          }
        }
        JOINT RightShoulder
        {
          OFFSET -4.34795 11.1512 -0.605422
          CHANNELS 3 Zrotation Xrotation Yrotation
          JOINT RightArm
          {
            OFFSET 0 14.6258 0
            CHANNELS 3 Zrotation Xrotation Yrotation
            JOINT RightArmRoll
            {
              OFFSET 0 7.3834 0
              CHANNELS 3 Zrotation Xrotation Yrotation
              JOINT RightForeArm
              {
                OFFSET 0 21.5052 0
                CHANNELS 3 Zrotation Xrotation Yrotation
                JOINT RightForeArmRoll
                {
                  OFFSET 0 8.28532 0
                  CHANNELS 3 Zrotation Xrotation Yrotation
                  JOINT RightHand
                  {
                    OFFSET 0 16.6268 0
                    CHANNELS 3 Zrotation Xrotation Yrotation
                    End Site
                    {
                      OFFSET 0 0 0
                    }
                  }
                }
              }
            }
          }
        }
        JOINT LeftShoulder
        {
          OFFSET 4.34795 11.1512 -0.605422
          CHANNELS 3 Zrotation Xrotation Yrotation
          JOINT LeftArm
          {
            OFFSET 0 14.6258 0
            CHANNELS 3 Zrotation Xrotation Yrotation
            JOINT LeftArmRoll
            {
              OFFSET 0 7.3834 0
              CHANNELS 3 Zrotation Xrotation Yrotation
              JOINT LeftForeArm
              {
                OFFSET 0 21.5052 0
                CHANNELS 3 Zrotation Xrotation Yrotation
                JOINT LeftForeArmRoll
                {
                  OFFSET 0 8.28532 0
                  CHANNELS 3 Zrotation Xrotation Yrotation
                  JOINT LeftHand
                  {
                    OFFSET 0 16.6268 0
                    CHANNELS 3 Zrotation Xrotation Yrotation
                    End Site
                    {
                      OFFSET 0 0 0
                    }
                  }
                }
              }
            }
          }
        }
      }
    }
  }
  JOINT RightUpLeg
  {
    OFFSET -7.8151 -1.43309 -1.20217
    CHANNELS 3 Zrotation Xrotation Yrotation
    JOINT RightUpLegRoll
    {
      OFFSET 0 19.4959 0
      CHANNELS 3 Zrotation Xrotation Yrotation
      JOINT RightLeg
      {
        OFFSET 0 -24.1427 0
        CHANNELS 3 Zrotation Xrotation Yrotation
        JOINT RightLegRoll
        {
          OFFSET 0 24.2217 0
          CHANNELS 3 Zrotation Xrotation Yrotation
          JOINT RightFoot
          {
            OFFSET 0 20.1605 0
            CHANNELS 3 Zrotation Xrotation Yrotation
            JOINT RightToeBase
            {
              OFFSET 0 16.8532 0
              CHANNELS 3 Zrotation Xrotation Yrotation
              End Site
              {
                OFFSET 0.00714343 8.16187 -0.94078
              }
            }
          }
        }
      }
    }
  }
  JOINT LeftUpLeg
  {
    OFFSET 7.8151 -1.43309 -1.20217
    CHANNELS 3 Zrotation Xrotation Yrotation
    JOINT LeftUpLegRoll
    {
      OFFSET 0 19.496 0
      CHANNELS 3 Zrotation Xrotation Yrotation
      JOINT LeftLeg
      {
        OFFSET 0 24.1426 0
        CHANNELS 3 Zrotation Xrotation Yrotation
        JOINT LeftLegRoll
        {
          OFFSET 0 24.4456 0
          CHANNELS 3 Zrotation Xrotation Yrotation
          JOINT LeftFoot
          {
            OFFSET 0 19.9366 0
            CHANNELS 3 Zrotation Xrotation Yrotation
            JOINT LeftToeBase
            {
              OFFSET 0 16.8532 0
              CHANNELS 3 Zrotation Xrotation Yrotation
              End Site
              {
                OFFSET -0.0320138 8.16187 -0.94078
              }
            }
          }
        }
      }
    }
  }
}
MOTION
Frames: 13
Frame Time: 0.00208333
52.4146 100.697 18.8832 0.552551 -4.82482 5.87133 -0.0373387 -2.41038 -0.112397 -0.0778542 -0.818233 -0.217541 -0.0752578 0.826836 -0.216263 -1.83305 22.349 0.0218369 -4.89429 -3.8889 -1.26552 65.3917 -4.89103 -3.46581 119.075 24.7862 -60.2193 -9.54166e-015 -4.77083e-015 -3.18055e-015 -135.462 72.3679 117.085 -1.10984e-006 3.25569e-006 -3.00036 8.02902 -4.95145 0.697683 -57.8006 -5.02003 3.05961 -128.809 34.3324 50.6668 -2.3971e-005 -2.51784e-006 -1.65068e-006 74.9346 86.4335 -67.5846 9.60226e-006 -6.69242e-007 3.00001 -8.02887 -4.95146 -0.697692 177.507 -5.22868 0.180268 180 7.01523e-015 178.825 178.918 5.0229 179.719 2.79751e-006 -2.08958e-006 0.0734087 -18.9776 68.3408 19.8342 8.14684 25.3856 -3.28051 -176.842 -4.71102 1.74528 4.54188e-006 -4.6773e-006 -1.18618 -2.29412 -6.63809 0.140531 -1.36302e-006 -6.64027e-007 -0.103291 19.3807 68.8088 -20.2205 -8.1638 25.6336 2.9436 
52.4069 100.698 18.8921 0.54948 -4.81918 5.87451 -0.0376972 -2.41527 -0.112597 -0.0788386 -0.827657 -0.217423 -0.0762415 0.817412 -0.216124 -1.77612 22.4339 0.0251323 -4.9223 -3.95679 -1.25236 65.3872 -4.90299 -3.47224 119.002 24.8375 -59.9679 3.18055e-015 2.06736e-014 -0 -135.622 72.3743 117.281 -1.10984e-006 3.25569e-006 -3.00036 8.02902 -4.95145 0.697683 -57.8067 -4.99987 3.04764 -128.66 34.3297 50.487 -2.3971e-005 -2.51784e-006 -1.65068e-006 74.8574 86.4376 -67.5174 9.60226e-006 -6.69242e-007 3.00001 -8.02887 -4.95146 -0.697692 177.51 -5.22413 0.177485 180 7.01523e-015 178.825 178.919 5.01947 179.719 2.79751e-006 -2.08958e-006 0.0733851 -18.9737 68.3363 19.83 8.1469 25.3865 -3.27908 -176.838 -4.70191 1.74373 4.54188e-006 -4.6773e-006 -1.18621 -2.29457 -6.63992 0.140617 -1.36302e-006 -6.64027e-007 -0.103407 19.3792 68.8071 -20.2189 -8.16379 25.6334 2.94348 
52.4107 100.699 18.8861 0.545947 -4.81311 5.87795 -0.0379738 -2.42023 -0.112707 -0.0794917 -0.837304 -0.217067 -0.076897 0.807766 -0.215757 -1.72254 22.511 0.0295139 -4.94456 -4.00968 -1.2375 65.3861 -4.91226 -3.4775 118.924 24.889 -59.7112 3.18055e-015 -1.11319e-014 -1.27222e-014 -135.797 72.3697 117.485 -1.10984e-006 3.25569e-006 -3.00036 8.02902 -4.95145 0.697683 -57.8131 -4.97565 3.03322 -128.509 34.3304 50.2997 -2.3971e-005 -2.51784e-006 -1.65068e-006 74.845 86.4443 -67.5151 9.60226e-006 -6.69242e-007 3.00001 -8.02887 -4.95146 -0.697692 177.515 -5.21835 0.174291 180 7.01523e-015 178.825 178.92 5.01737 179.719 2.79751e-006 -2.08958e-006 0.0733602 -18.9703 68.3324 19.8263 8.14696 25.3874 -3.27771 -176.834 -4.69155 1.74162 4.54188e-006 -4.6773e-006 -1.18624 -2.29524 -6.64341 0.140612 -1.36302e-006 -6.64027e-007 -0.103523 19.3788 68.8067 -20.2185 -8.16377 25.6333 2.94348 
52.4053 100.7 18.896 0.541935 -4.80602 5.88197 -0.0382348 -2.42567 -0.112759 -0.079963 -0.847994 -0.21651 -0.0773734 0.797075 -0.215192 -1.67059 22.5866 0.0346417 -4.96191 -4.05224 -1.22119 65.3906 -4.91895 -3.48182 118.836 24.942 -59.4482 9.54166e-015 1.27222e-014 -3.18055e-015 -135.984 72.3572 117.695 -1.10984e-006 3.25569e-006 -3.00036 8.02902 -4.95145 0.697683 -57.8208 -4.94537 3.01518 -128.353 34.3322 50.0988 -2.3971e-005 -2.51784e-006 -1.65068e-006 74.879 86.4532 -67.5598 9.60226e-006 -6.69242e-007 3.00001 -8.02887 -4.95146 -0.697692 177.519 -5.21082 0.170657 180 7.01523e-015 178.825 178.921 5.0164 179.719 2.79752e-006 -2.08958e-006 0.0733333 -18.9673 68.329 19.8231 8.14703 25.3884 -3.27633 -176.829 -4.67924 1.73907 4.54188e-006 -4.6773e-006 -1.18628 -2.2961 -6.64829 0.14053 -1.36302e-006 -6.64027e-007 -0.103642 19.3792 68.8071 -20.2189 -8.16376 25.633 2.94354 
52.4078 100.696 18.8914 0.537505 -4.79804 5.88646 -0.0384793 -2.43151 -0.112761 -0.080274 -0.859545 -0.215782 -0.0776917 0.785524 -0.214462 -1.62002 22.6604 0.0403855 -4.9752 -4.08535 -1.20362 65.3998 -4.92332 -3.48527 118.741 24.9962 -59.179 -3.53113e-031 6.36111e-015 3.18055e-015 -136.182 72.3373 117.911 -1.10984e-006 3.25569e-006 -3.00036 8.02902 -4.95145 0.697683 -57.8294 -4.90995 2.99408 -128.193 34.3349 49.8859 -2.3971e-005 -2.51784e-006 -1.65068e-006 74.9566 86.4639 -67.6488 9.60226e-006 -6.69242e-007 3.00001 -8.02887 -4.95146 -0.697692 177.525 -5.20175 0.166646 180 7.01523e-015 178.825 178.922 5.01647 179.718 2.79751e-006 -2.08958e-006 0.0733046 -18.9646 68.3259 19.8202 8.14709 25.3893 -3.27495 -176.823 -4.66524 1.73611 4.54188e-006 -4.6773e-006 -1.18631 -2.29714 -6.65441 0.14038 -1.36302e-006 -6.64027e-007 -0.103763 19.3801 68.8082 -20.22 -8.16374 25.6328 2.94365 
52.4061 100.697 18.8885 0.532721 -4.78934 5.89134 -0.0387069 -2.43767 -0.112724 -0.0804462 -0.871773 -0.214918 -0.077873 0.773296 -0.213597 -1.57058 22.7321 0.0466145 -4.9853 -4.10991 -1.18502 65.4129 -4.92565 -3.48793 118.639 25.0514 -58.9037 3.18055e-015 -1.74931e-014 -9.54166e-015 -136.39 72.3108 118.133 -1.10984e-006 3.25569e-006 -3.00035 8.02902 -4.95145 0.697683 -57.8389 -4.87031 2.97046 -128.029 34.3383 49.6624 -2.3971e-005 -2.51784e-006 -1.65068e-006 75.0754 86.4763 -67.7793 9.60226e-006 -6.69242e-007 3.00001 -8.02887 -4.95146 -0.697692 177.531 -5.19133 0.162319 180 7.01523e-015 178.825 178.924 5.01746 179.718 2.79751e-006 -2.08958e-006 0.073274 -18.9621 68.3232 19.8175 8.14716 25.3903 -3.27356 -176.817 -4.64981 1.73281 4.54188e-006 -4.6773e-006 -1.18634 -2.29834 -6.66158 0.14017 -1.36302e-006 -6.64027e-007 -0.103885 19.3817 68.8098 -20.2216 -8.16372 25.6325 2.94381 
52.405 100.698 18.8893 0.527646 -4.78005 5.89648 -0.0389167 -2.44404 -0.112656 -0.0805012 -0.884495 -0.213948 -0.0779385 0.760575 -0.212631 -1.52203 22.8013 0.0531976 -4.99306 -4.12678 -1.1656 65.4292 -4.92622 -3.48989 118.531 25.1075 -58.6226 -6.36111e-015 -1.90833e-014 -6.36111e-015 -136.609 72.2781 118.361 -1.10984e-006 3.25569e-006 -3.00035 8.02902 -4.95145 0.697683 -57.8489 -4.82738 2.94487 -127.863 34.3423 49.43 -2.3971e-005 -2.51784e-006 -1.65068e-006 75.2327 86.4902 -67.9486 9.60226e-006 -6.69242e-007 3.00001 -8.02887 -4.95146 -0.697692 177.537 -5.17979 0.157738 180 7.01523e-015 178.825 178.925 5.01927 179.718 2.79751e-006 -2.08958e-006 0.0732418 -18.9599 68.3207 19.8152 8.14723 25.3913 -3.27219 -176.811 -4.63323 1.72921 4.54188e-006 -4.6773e-006 -1.18638 -2.29968 -6.66963 0.139908 -1.36302e-006 -6.64027e-007 -0.104009 19.3837 68.812 -20.2238 -8.1637 25.6322 2.94402 
52.4042 100.696 18.8868 0.522344 -4.77032 5.90179 -0.039108 -2.45056 -0.112566 -0.0804603 -0.897528 -0.212906 -0.0779091 0.747542 -0.211595 -1.47412 22.8678 0.0600034 -4.99934 -4.13685 -1.14557 65.4478 -4.9253 -3.49124 118.418 25.1643 -58.3359 -0 -3.18055e-015 -0 -136.837 72.24 118.595 -1.10984e-006 3.25569e-006 -3.00035 8.02902 -4.95145 0.697683 -57.8592 -4.78207 2.91787 -127.695 34.3467 49.1901 -2.3971e-005 -2.51784e-006 -1.65068e-006 75.4257 86.5051 -68.1539 9.60226e-006 -6.69242e-007 3.00001 -8.02887 -4.95146 -0.697692 177.544 -5.16732 0.152964 180 7.01523e-015 178.825 178.927 5.02182 179.718 2.79752e-006 -2.08958e-006 0.0732078 -18.958 68.3185 19.8131 8.1473 25.3923 -3.27083 -176.804 -4.61575 1.72535 4.54188e-006 -4.6773e-006 -1.18641 -2.30116 -6.67838 0.139603 -1.36302e-006 -6.64027e-007 -0.104134 19.386 68.8146 -20.2263 -8.16368 25.6318 2.94428 
52.402 100.695 18.8867 0.516878 -4.7603 5.90716 -0.0392802 -2.45712 -0.112465 -0.0803452 -0.910687 -0.211824 -0.0778062 0.734383 -0.210521 -1.4266 22.9313 0.0669 -5.00499 -4.14099 -1.12515 65.468 -4.92316 -3.49206 118.302 25.2217 -58.0437 1.27222e-014 1.11319e-014 -1.27222e-014 -137.073 72.1969 118.835 -1.10984e-006 3.25569e-006 -3.00035 8.02902 -4.95145 0.697683 -57.8695 -4.73533 2.89001 -127.526 34.3513 48.9443 -2.3971e-005 -2.51784e-006 -1.65068e-006 75.6518 86.521 -68.3925 9.60226e-006 -6.69242e-007 3.00001 -8.02887 -4.95146 -0.697692 177.55 -5.15413 0.14806 180 7.01523e-015 178.825 178.928 5.02498 179.718 2.79752e-006 -2.08958e-006 0.0731723 -18.9563 68.3166 19.8112 8.14736 25.3933 -3.26949 -176.797 -4.59764 1.7213 4.54188e-006 -4.6773e-006 -1.18645 -2.30274 -6.68768 0.139263 -1.36302e-006 -6.64027e-007 -0.104259 19.3887 68.8176 -20.2292 -8.16365 25.6315 2.94458 
52.404 100.695 18.8816 0.511312 -4.75015 5.91249 -0.0394326 -2.46364 -0.112362 -0.0801775 -0.92379 -0.210734 -0.0776509 0.72128 -0.209441 -1.37922 22.9915 0.0737553 -5.01087 -4.1401 -1.10454 65.4888 -4.92007 -3.49242 118.184 25.2796 -57.7462 6.36111e-015 -1.27222e-014 -1.59028e-014 -137.318 72.1496 119.082 -1.10984e-006 3.25569e-006 -3.00035 8.02902 -4.95145 0.697683 -57.8798 -4.68806 2.86184 -127.357 34.3562 48.6943 -2.3971e-005 -2.51784e-006 -1.65068e-006 75.9083 86.5375 -68.6615 9.60226e-006 -6.69242e-007 3.00001 -8.02887 -4.95146 -0.697692 177.557 -5.14043 0.143087 180 7.01523e-015 178.825 178.93 5.02867 179.719 2.79751e-006 -2.08958e-006 0.0731353 -18.9547 68.3148 19.8095 8.14743 25.3943 -3.26819 -176.79 -4.57916 1.71709 4.54188e-006 -4.6773e-006 -1.18648 -2.30443 -6.69734 0.138895 -1.36302e-006 -6.64027e-007 -0.104385 19.3916 68.8208 -20.2323 -8.16363 25.6311 2.94492 
52.4014 100.7 18.8821 0.505709 -4.74 5.91768 -0.0395645 -2.47003 -0.112265 -0.0799789 -0.936654 -0.209669 -0.0774644 0.708417 -0.208385 -1.33172 23.048 0.0804369 -5.01784 -4.13504 -1.08397 65.5097 -4.91632 -3.49242 118.064 25.3377 -57.4437 3.18055e-015 -6.36111e-015 -9.54166e-015 -137.57 72.0986 119.334 -1.10984e-006 3.25569e-006 -3.00035 8.02902 -4.95145 0.697683 -57.8897 -4.64119 2.8339 -127.188 34.361 48.4415 -2.3971e-005 -2.51784e-006 -1.65068e-006 76.1925 86.5543 -68.9581 9.60226e-006 -6.69242e-007 3.00001 -8.02887 -4.95146 -0.697692 177.564 -5.12641 0.138107 180 7.01523e-015 178.825 178.932 5.03278 179.719 2.79752e-006 -2.08958e-006 0.0730968 -18.9533 68.3132 19.808 8.14749 25.3952 -3.26692 -176.782 -4.56059 1.71278 4.54188e-006 -4.6773e-006 -1.18652 -2.30619 -6.70719 0.138509 -1.36302e-006 -6.64027e-007 -0.10451 19.3947 68.8241 -20.2356 -8.1636 25.6308 2.94531 
52.403 100.697 18.869 0.500132 -4.73 5.92261 -0.0396752 -2.4762 -0.112186 -0.079771 -0.949095 -0.208661 -0.0772681 0.695976 -0.207388 -1.28385 23.1006 0.0868121 -5.02676 -4.12669 -1.06364 65.5296 -4.91216 -3.49214 117.945 25.396 -57.1363 -6.36111e-015 -1.59028e-014 -9.54166e-015 -137.829 72.0446 119.593 -1.10984e-006 3.25569e-006 -3.00035 8.02902 -4.95145 0.697683 -57.899 -4.59565 2.80675 -127.022 34.366 48.1875 -2.3971e-005 -2.51784e-006 -1.65068e-006 76.5014 86.5713 -69.2793 9.60226e-006 -6.69242e-007 3.00001 -8.02887 -4.95146 -0.697692 177.571 -5.11229 0.133181 180 7.01523e-015 178.825 178.933 5.03719 179.719 2.79752e-006 -2.08958e-006 0.0730569 -18.952 68.3118 19.8066 8.14756 25.3962 -3.26569 -176.775 -4.54218 1.70842 4.54188e-006 -4.6773e-006 -1.18655 -2.30803 -6.71706 0.138113 -1.36302e-006 -6.64027e-007 -0.104635 19.3978 68.8275 -20.239 -8.16358 25.6304 2.94573 
52.4011 100.697 18.8701 0.494647 -4.72031 5.92719 -0.0397641 -2.48207 -0.112132 -0.0795756 -0.960929 -0.207743 -0.0770833 0.684142 -0.206479 -1.23536 23.149 0.0927478 -5.03846 -4.11595 -1.04377 65.5479 -4.90789 -3.49166 117.826 25.4543 -56.8243 1.59028e-014 1.74931e-014 1.59028e-014 -138.095 71.988 119.858 -1.10984e-006 3.25569e-006 -3.00035 8.02902 -4.95145 0.697683 -57.9075 -4.55237 2.78094 -126.858 34.3709 47.934 -2.3971e-005 -2.51784e-006 -1.65068e-006 76.8318 86.5881 -69.6219 9.60226e-006 -6.69242e-007 3.00001 -8.02887 -4.95146 -0.697692 177.577 -5.09827 0.128371 180 7.01523e-015 178.825 178.935 5.04184 179.719 2.79752e-006 -2.08958e-006 0.0730157 -18.9507 68.3104 19.8053 8.14762 25.397 -3.26452 -176.768 -4.52421 1.70405 4.54188e-006 -4.6773e-006 -1.18659 -2.30992 -6.72677 0.137715 -1.36302e-006 -6.64027e-007 -0.104759 19.401 68.831 -20.2423 -8.16355 25.63 2.94619 
